<svg width="40" height="40" viewBox="0 0 40 40" fill="none" xmlns="http://www.w3.org/2000/svg">
<path d="M28.7981 14.5868H11.2013C10.5339 14.5868 10 14.012 10 13.2934C10 12.5749 10.5339 12 11.2013 12H28.7981C29.4654 12 29.9994 12.5749 29.9994 13.2934C30.0216 14.012 29.4654 14.5868 28.7981 14.5868Z" fill="#2D3134"/>
<path d="M19.7216 21.3413H11.2013C10.5339 21.3413 10 20.7665 10 20.0479C10 19.3294 10.5339 18.7545 11.2013 18.7545H19.7216C20.389 18.7545 20.9229 19.3294 20.9229 20.0479C20.9451 20.7425 20.4112 21.3413 19.7216 21.3413Z" fill="#2D3134"/>
<path d="M11.2013 28H24.1708C24.8382 28 25.3721 27.4252 25.3499 26.7066C25.3499 25.9881 24.816 25.4132 24.1486 25.4132H11.2013C10.5339 25.4132 10 25.9881 10 26.7066C10 27.4252 10.5339 28 11.2013 28Z" fill="#2D3134"/>
</svg>
